<?xml version="1.0" encoding="UTF-8"?>
<svg version="1.1" xmlns="http://www.w3.org/2000/svg" width="500" height="500">
<path d="M0 0 C0.65547821 -0.00095673 1.31095642 -0.00191345 1.98629761 -0.00289917 C3.36635433 -0.00357751 4.74641431 -0.0017474 6.12646484 0.00244141 C8.24193433 0.00781186 10.35719318 0.00247598 12.47265625 -0.00390625 C13.81510464 -0.00324574 15.15755289 -0.00196515 16.5 0 C17.72090332 0.00112793 18.94180664 0.00225586 20.19970703 0.00341797 C23.1171875 0.1328125 23.1171875 0.1328125 25.1171875 1.1328125 C28.59522527 1.16402566 32.06226109 1.06512437 35.5390625 0.97265625 C39.13163491 1.13345916 41.75773617 1.92417137 45.1171875 3.1328125 C46.7878125 3.101875 46.7878125 3.101875 48.4921875 3.0703125 C52.36280591 3.1370473 54.75080758 4.01549083 58.26171875 5.46875 C60.6087689 6.30874689 62.6459337 6.274027 65.1171875 6.1328125 C66.1071875 6.4628125 67.0971875 6.7928125 68.1171875 7.1328125 C68.1171875 7.7928125 68.1171875 8.4528125 68.1171875 9.1328125 C68.84164063 8.93042969 69.56609375 8.72804688 70.3125 8.51953125 C73.57906961 8.0691268 75.0180644 8.60078081 77.9921875 9.9453125 C81.98644733 11.67239959 85.9148532 12.97923054 90.1171875 14.1328125 C91.78651808 14.7927804 93.4536396 15.45840119 95.1171875 16.1328125 C96.44395258 16.49139766 97.77554671 16.8346701 99.1171875 17.1328125 C99.1171875 17.7928125 99.1171875 18.4528125 99.1171875 19.1328125 C99.96990234 19.40544922 99.96990234 19.40544922 100.83984375 19.68359375 C105.72419753 21.27365884 110.42747777 23.03741028 115.1171875 25.1328125 C115.1171875 25.7928125 115.1171875 26.4528125 115.1171875 27.1328125 C115.68308594 27.25398438 116.24898438 27.37515625 116.83203125 27.5 C117.56550781 27.66757812 118.29898437 27.83515625 119.0546875 28.0078125 C119.78558594 28.17023437 120.51648438 28.33265625 121.26953125 28.5 C123.1171875 29.1328125 123.1171875 29.1328125 124.1171875 31.1328125 C125.44795739 31.47623699 126.78150729 31.80901124 128.1171875 32.1328125 C128.7771875 32.7928125 129.4371875 33.4528125 130.1171875 34.1328125 C130.9628125 34.4628125 131.8084375 34.7928125 132.6796875 35.1328125 C135.1171875 36.1328125 135.1171875 36.1328125 136.1171875 38.1328125 C137.1071875 38.4628125 138.0971875 38.7928125 139.1171875 39.1328125 C139.4471875 39.7928125 139.7771875 40.4528125 140.1171875 41.1328125 C142.10412013 42.21143307 144.14444649 43.11054929 146.20703125 44.03515625 C148.1171875 45.1328125 148.1171875 45.1328125 150.1171875 48.1328125 C151.77566927 49.14632914 153.44384711 50.14402045 155.1171875 51.1328125 C157.24243296 52.70799443 159.15037687 54.348961 161.1171875 56.1328125 C161.1171875 56.7928125 161.1171875 57.4528125 161.1171875 58.1328125 C162.7671875 58.7928125 164.4171875 59.4528125 166.1171875 60.1328125 C166.1171875 60.7928125 166.1171875 61.4528125 166.1171875 62.1328125 C167.1071875 62.4628125 168.0971875 62.7928125 169.1171875 63.1328125 C169.1171875 63.7928125 169.1171875 64.4528125 169.1171875 65.1328125 C169.7771875 65.1328125 170.4371875 65.1328125 171.1171875 65.1328125 C171.1171875 65.7928125 171.1171875 66.4528125 171.1171875 67.1328125 C171.7771875 67.1328125 172.4371875 67.1328125 173.1171875 67.1328125 C173.1171875 67.7928125 173.1171875 68.4528125 173.1171875 69.1328125 C174.1071875 69.4628125 175.0971875 69.7928125 176.1171875 70.1328125 C176.1171875 70.7928125 176.1171875 71.4528125 176.1171875 72.1328125 C176.7771875 72.1328125 177.4371875 72.1328125 178.1171875 72.1328125 C178.1171875 72.7928125 178.1171875 73.4528125 178.1171875 74.1328125 C178.7771875 74.1328125 179.4371875 74.1328125 180.1171875 74.1328125 C180.1171875 74.7928125 180.1171875 75.4528125 180.1171875 76.1328125 C181.1071875 76.4628125 182.0971875 76.7928125 183.1171875 77.1328125 C184.9296875 79.1953125 184.9296875 79.1953125 187.1171875 82.1328125 C188.15790497 83.52935368 189.1996213 84.92515091 190.2421875 86.3203125 C190.73976563 86.99449219 191.23734375 87.66867188 191.75 88.36328125 C193.14186838 90.24231114 193.14186838 90.24231114 195.1171875 92.1328125 C195.519375 93.03 195.519375 93.03 195.9296875 93.9453125 C197.09067655 96.34180176 197.09067655 96.34180176 199.5546875 98.5078125 C202.22201844 101.24020029 203.48307744 103.71603691 205.1171875 107.1328125 C205.9525 107.9371875 205.9525 107.9371875 206.8046875 108.7578125 C208.1171875 110.1328125 208.1171875 110.1328125 208.1171875 114.1328125 C208.7771875 114.1328125 209.4371875 114.1328125 210.1171875 114.1328125 C210.1171875 115.1228125 210.1171875 116.1128125 210.1171875 117.1328125 C210.7771875 117.1328125 211.4371875 117.1328125 212.1171875 117.1328125 C214.62456382 120.62133608 216.00680223 124.33206958 217.37109375 128.36328125 C218.07401354 130.34086518 218.07401354 130.34086518 220.1171875 132.1328125 C220.1171875 133.4528125 220.1171875 134.7728125 220.1171875 136.1328125 C220.7771875 136.1328125 221.4371875 136.1328125 222.1171875 136.1328125 C223.06815765 138.51023787 224.01894134 140.88773523 224.96875 143.265625 C225.70992313 145.11603683 226.45447106 146.96510215 227.203125 148.8125 C228.98280897 153.21487613 230.70555318 157.59541648 232.1171875 162.1328125 C232.5090625 163.3703125 232.9009375 164.6078125 233.3046875 165.8828125 C234.1171875 169.1328125 234.1171875 169.1328125 233.1171875 171.1328125 C233.7771875 171.4628125 234.4371875 171.7928125 235.1171875 172.1328125 C236.87740349 178.34533952 238.05879685 184.64093122 239.1171875 191.0078125 C239.2821875 191.99523437 239.4471875 192.98265625 239.6171875 194 C240.60456854 200.18655935 241.30884019 206.25658002 241.6171875 212.5078125 C241.85433979 216.98639751 242.09253966 221.43372044 242.6796875 225.8828125 C243.80281611 235.37506071 243.10814988 244.7043946 241.82885742 254.1328125 C241.24529551 258.50614916 241.11180787 262.72689357 241.1171875 267.1328125 C240.45634167 269.46780108 239.78907247 271.80097643 239.1171875 274.1328125 C238.7940659 276.78477396 238.56047318 279.42964677 238.36328125 282.09375 C238.1171875 284.1328125 238.1171875 284.1328125 237.1171875 285.1328125 C236.88643668 286.48028334 236.70565687 287.83658815 236.5546875 289.1953125 C236.4103125 290.4946875 236.2659375 291.7940625 236.1171875 293.1328125 C235.4571875 293.1328125 234.7971875 293.1328125 234.1171875 293.1328125 C234.4575 294.1846875 234.4575 294.1846875 234.8046875 295.2578125 C235.21602892 299.04215355 233.88087699 300.80893614 232.1171875 304.1328125 C231.40960424 307.3695088 231.40960424 307.3695088 231.1171875 310.1328125 C230.4571875 310.1328125 229.7971875 310.1328125 229.1171875 310.1328125 C228.7871875 313.1028125 228.4571875 316.0728125 228.1171875 319.1328125 C227.4571875 319.1328125 226.7971875 319.1328125 226.1171875 319.1328125 C225.9934375 319.6484375 225.8696875 320.1640625 225.7421875 320.6953125 C224.47633595 325.63213353 223.10989454 330.43571733 221.1171875 335.1328125 C220.4571875 335.1328125 219.7971875 335.1328125 219.1171875 335.1328125 C218.4571875 337.4428125 217.7971875 339.7528125 217.1171875 342.1328125 C216.4571875 342.1328125 215.7971875 342.1328125 215.1171875 342.1328125 C214.9934375 342.6896875 214.8696875 343.2465625 214.7421875 343.8203125 C213.06254359 350.03499498 209.86515923 354.34502597 205.9921875 359.4140625 C204.24390965 361.94906538 203.12452167 364.23672675 202.1171875 367.1328125 C201.4571875 367.1328125 200.7971875 367.1328125 200.1171875 367.1328125 C199.8078125 367.9165625 199.4984375 368.7003125 199.1796875 369.5078125 C198.1171875 372.1328125 198.1171875 372.1328125 197.1171875 374.1328125 C196.4571875 374.1328125 195.7971875 374.1328125 195.1171875 374.1328125 C195.1171875 375.1228125 195.1171875 376.1128125 195.1171875 377.1328125 C193.80924419 378.49106132 192.46817853 379.81737387 191.1171875 381.1328125 C189.56341877 383.13689018 188.06855988 385.17614139 186.58203125 387.23046875 C185.20273077 389.02172031 183.71233441 390.53766559 182.1171875 392.1328125 C181.7871875 392.7928125 181.4571875 393.4528125 181.1171875 394.1328125 C180.4571875 394.1328125 179.7971875 394.1328125 179.1171875 394.1328125 C179.1171875 394.7928125 179.1171875 395.4528125 179.1171875 396.1328125 C177.46715922 397.48668186 175.7997488 398.81959392 174.1171875 400.1328125 C173.7871875 400.7928125 173.4571875 401.4528125 173.1171875 402.1328125 C172.4571875 402.1328125 171.7971875 402.1328125 171.1171875 402.1328125 C171.1171875 402.7928125 171.1171875 403.4528125 171.1171875 404.1328125 C170.4571875 404.1328125 169.7971875 404.1328125 169.1171875 404.1328125 C169.1171875 404.7928125 169.1171875 405.4528125 169.1171875 406.1328125 C167.5078125 407.5 167.5078125 407.5 165.3671875 409.0078125 C162.94284259 410.75539681 160.86386163 412.38613837 158.7421875 414.5078125 C158.2059375 415.0440625 157.6696875 415.5803125 157.1171875 416.1328125 C156.4571875 416.1328125 155.7971875 416.1328125 155.1171875 416.1328125 C155.1171875 416.7928125 155.1171875 417.4528125 155.1171875 418.1328125 C153.65625 419.421875 153.65625 419.421875 151.7421875 420.7578125 C151.11570312 421.20382812 150.48921875 421.64984375 149.84375 422.109375 C148.1171875 423.1328125 148.1171875 423.1328125 146.1171875 423.1328125 C146.1171875 423.7928125 146.1171875 424.4528125 146.1171875 425.1328125 C145.1271875 425.4628125 144.1371875 425.7928125 143.1171875 426.1328125 C142.4571875 426.7928125 141.7971875 427.4528125 141.1171875 428.1328125 C139.1171875 430.1328125 139.1171875 430.1328125 136.1171875 431.1328125 C135.4571875 431.7928125 134.7971875 432.4528125 134.1171875 433.1328125 C129.38331025 436.47036625 124.46792908 438.99251587 119.09765625 441.140625 C116.97690962 442.20308978 115.76738096 443.45541805 114.1171875 445.1328125 C112.12147427 445.81220424 110.12123977 446.47842809 108.1171875 447.1328125 C106.77443581 448.12012992 105.43986477 449.11875993 104.1171875 450.1328125 C102.78675176 450.47752925 101.45288435 450.80907987 100.1171875 451.1328125 C98.54586513 451.73528844 96.98376596 452.36215672 95.4296875 453.0078125 C79.02579346 459.67113726 79.02579346 459.67113726 74.6796875 458.4453125 C71.79919756 456.9699396 69.50467623 455.31565934 67.1171875 453.1328125 C67.1171875 452.4728125 67.1171875 451.8128125 67.1171875 451.1328125 C66.4571875 450.8028125 65.7971875 450.4728125 65.1171875 450.1328125 C63.63329305 447.1650236 63.99575051 444.153069 64.01953125 440.90087891 C64.02099152 440.15598709 64.02245178 439.41109528 64.0239563 438.64363098 C64.02776627 437.02358973 64.03388701 435.40355267 64.04202271 433.78352737 C64.0547595 431.21988341 64.0612953 428.65629104 64.06616211 426.09262085 C64.07955206 419.72344307 64.10372843 413.35431415 64.12756348 406.98516846 C64.14728633 401.60760144 64.16293247 396.23005273 64.17312622 390.85245895 C64.17961154 388.3264616 64.19212154 385.80053923 64.20483398 383.27456665 C64.20846707 381.72422349 64.21181873 380.17387963 64.21484375 378.62353516 C64.22001007 377.92105148 64.22517639 377.21856781 64.23049927 376.49479675 C64.23085592 373.20378248 64.03663121 370.29308531 63.1171875 367.1328125 C63.1378125 366.3284375 63.1584375 365.5240625 63.1796875 364.6953125 C63.10701276 361.71564799 62.2452259 359.89023971 61.1171875 357.1328125 C60.62735676 354.76867074 60.18320437 352.40343569 59.77734375 350.0234375 C59.55949219 349.39953125 59.34164063 348.775625 59.1171875 348.1328125 C58.1271875 347.8028125 57.1371875 347.4728125 56.1171875 347.1328125 C54.9296875 344.5703125 54.9296875 344.5703125 54.1171875 342.1328125 C53.4571875 342.1328125 52.7971875 342.1328125 52.1171875 342.1328125 C51.4571875 340.8128125 50.7971875 339.4928125 50.1171875 338.1328125 C55.6876545 335.71544003 60.32675348 334.08644 66.4375 333.4453125 C69.44754545 333.09428679 72.43565117 332.66381696 75.4296875 332.1953125 C76.41582031 332.04191406 77.40195312 331.88851563 78.41796875 331.73046875 C80.98384295 331.16233741 82.79565179 330.31426731 85.1171875 329.1328125 C86.85532138 328.70617964 88.60707415 328.33204391 90.3671875 328.0078125 C91.25921875 327.84023438 92.15125 327.67265625 93.0703125 327.5 C93.74578125 327.37882812 94.42125 327.25765625 95.1171875 327.1328125 C95.1171875 326.4728125 95.1171875 325.8128125 95.1171875 325.1328125 C96.7671875 325.1328125 98.4171875 325.1328125 100.1171875 325.1328125 C100.1171875 324.4728125 100.1171875 323.8128125 100.1171875 323.1328125 C103.4171875 322.1428125 106.7171875 321.1528125 110.1171875 320.1328125 C110.1171875 319.4728125 110.1171875 318.8128125 110.1171875 318.1328125 C110.9215625 318.0090625 111.7259375 317.8853125 112.5546875 317.7578125 C113.4003125 317.5515625 114.2459375 317.3453125 115.1171875 317.1328125 C115.4471875 316.4728125 115.7771875 315.8128125 116.1171875 315.1328125 C118.1796875 314.5078125 118.1796875 314.5078125 120.1171875 314.1328125 C120.1171875 313.4728125 120.1171875 312.8128125 120.1171875 312.1328125 C120.7771875 312.1328125 121.4371875 312.1328125 122.1171875 312.1328125 C122.3440625 311.5140625 122.5709375 310.8953125 122.8046875 310.2578125 C124.49648585 307.51871041 126.10962911 307.08256778 129.1171875 306.1328125 C129.1171875 305.4728125 129.1171875 304.8128125 129.1171875 304.1328125 C129.7771875 304.1328125 130.4371875 304.1328125 131.1171875 304.1328125 C131.7771875 302.4828125 132.4371875 300.8328125 133.1171875 299.1328125 C133.7771875 299.1328125 134.4371875 299.1328125 135.1171875 299.1328125 C135.2615625 298.5140625 135.4059375 297.8953125 135.5546875 297.2578125 C136.1171875 295.1328125 136.1171875 295.1328125 137.1171875 293.1328125 C137.7771875 293.1328125 138.4371875 293.1328125 139.1171875 293.1328125 C139.37371094 292.29621094 139.63023437 291.45960938 139.89453125 290.59765625 C141.46318885 286.1522911 143.52560895 281.99171727 145.63867188 277.78710938 C147.6941385 273.54089064 148.51489134 269.85366713 149.1171875 265.1328125 C149.7771875 264.1428125 150.4371875 263.1528125 151.1171875 262.1328125 C151.0965625 261.4315625 151.0759375 260.7303125 151.0546875 260.0078125 C151.11655892 257.16172718 151.6127892 255.6239197 152.6171875 253.0078125 C154.22771706 248.49983489 154.33622729 244.56120775 154.125 239.80859375 C154.1171875 237.1328125 154.1171875 237.1328125 154.6015625 234.265625 C155.18893162 230.69691262 155.24958916 227.31102137 155.2421875 223.6953125 C155.24605469 221.81005859 155.24605469 221.81005859 155.25 219.88671875 C155.12062099 216.22985901 154.65488797 212.74853065 154.1171875 209.1328125 C154.05662599 207.48796184 154.02936795 205.84108293 154.0546875 204.1953125 C154.06371094 203.42316406 154.07273437 202.65101563 154.08203125 201.85546875 C154.09943359 201.00275391 154.09943359 201.00275391 154.1171875 200.1328125 C153.4571875 200.1328125 152.7971875 200.1328125 152.1171875 200.1328125 C152.0346875 199.1634375 151.9521875 198.1940625 151.8671875 197.1953125 C151.1051582 191.76171226 148.64584896 186.86747678 145.98828125 182.11328125 C145.1171875 180.1328125 145.1171875 180.1328125 145.1171875 176.1328125 C144.1271875 175.8028125 143.1371875 175.4728125 142.1171875 175.1328125 C142.1171875 174.1428125 142.1171875 173.1528125 142.1171875 172.1328125 C141.4571875 172.1328125 140.7971875 172.1328125 140.1171875 172.1328125 C140.1171875 171.1428125 140.1171875 170.1528125 140.1171875 169.1328125 C139.4571875 169.1328125 138.7971875 169.1328125 138.1171875 169.1328125 C132.19126157 158.61429398 132.19126157 158.61429398 133.1171875 152.1328125 C133.7771875 151.1428125 134.4371875 150.1528125 135.1171875 149.1328125 C135.3219006 146.88688152 135.3219006 146.88688152 135.1796875 144.4453125 C135.10461091 141.21232705 135.17379062 138.20128652 135.6796875 135.0078125 C136.16592553 130.70113278 135.73795771 127.4092295 135.1171875 123.1328125 C135.148125 121.555 135.148125 121.555 135.1796875 119.9453125 C135.11093711 116.85154474 134.31868927 114.95987549 133.1171875 112.1328125 C132.9728125 111.1634375 132.8284375 110.1940625 132.6796875 109.1953125 C132.02342289 105.62231631 131.15358925 103.15230474 129.1171875 100.1328125 C126.28756421 99.11911123 126.28756421 99.11911123 123.1171875 99.1328125 C122.1065625 99.0709375 121.0959375 99.0090625 120.0546875 98.9453125 C116.96922091 99.14225718 114.92049006 99.87870346 112.1171875 101.1328125 C111.50875 101.28105469 110.9003125 101.42929688 110.2734375 101.58203125 C104.87777893 102.96027012 99.67161035 105.32681547 94.7421875 107.8828125 C92.1171875 109.1328125 92.1171875 109.1328125 88.1171875 109.1328125 C88.1171875 109.7928125 88.1171875 110.4528125 88.1171875 111.1328125 C82.4921875 114.1328125 82.4921875 114.1328125 79.1171875 114.1328125 C78.7871875 115.1228125 78.4571875 116.1128125 78.1171875 117.1328125 C76.15415332 118.20355842 74.1474464 119.19576993 72.1171875 120.1328125 C71.2715625 120.7103125 70.4259375 121.2878125 69.5546875 121.8828125 C66.47575746 123.46175098 65.39544977 123.06945886 62.1171875 122.1328125 C60.415625 121.91625 60.415625 121.91625 58.6796875 121.6953125 C55.1171875 121.1328125 55.1171875 121.1328125 52.0546875 120.0703125 C49.15477024 118.98079241 49.15477024 118.98079241 46.1171875 119.1328125 C43.1171875 119.1328125 43.1171875 119.1328125 40.30371094 118.13842773 C37.00218587 117.09651985 34.57571325 116.94641568 31.1328125 117.04296875 C26.42021803 117.11856829 21.74837641 117.08041927 17.0390625 116.87890625 C15.85828125 116.82927734 14.6775 116.77964844 13.4609375 116.72851562 C11.04933562 116.62235272 8.63787496 116.51293579 6.2265625 116.40039062 C-0.30154603 116.13196511 -6.41027566 116.26462438 -12.8828125 117.1328125 C-14.27880035 117.13118907 -15.67490076 117.11044711 -17.0703125 117.0703125 C-20.86244156 117.13247855 -23.33432417 117.92481647 -26.8828125 119.1328125 C-29.21614583 119.1328125 -31.54947917 119.1328125 -33.8828125 119.1328125 C-36.21921426 119.78864457 -38.55270341 120.45496258 -40.8828125 121.1328125 C-44.3203125 121.2578125 -44.3203125 121.2578125 -46.8828125 121.1328125 C-46.8828125 121.7928125 -46.8828125 122.4528125 -46.8828125 123.1328125 C-49.64557427 122.61012784 -52.2089001 122.02411663 -54.8828125 121.1328125 C-54.8828125 120.4728125 -54.8828125 119.8128125 -54.8828125 119.1328125 C-55.7284375 118.9059375 -56.5740625 118.6790625 -57.4453125 118.4453125 C-60.75510228 117.18157458 -63.01477189 115.56192097 -65.80859375 113.43359375 C-69.17219825 111.32421466 -72.86071519 110.2325303 -76.625 109.02734375 C-78.8828125 108.1328125 -78.8828125 108.1328125 -79.8828125 106.1328125 C-82.28894162 105.28978373 -82.28894162 105.28978373 -85.1328125 104.6328125 C-88.86464264 103.70489798 -92.33007752 102.6019006 -95.8828125 101.1328125 C-102.27013822 99.0758771 -107.26946344 99.12996859 -113.8828125 100.1328125 C-114.10130859 101.01453125 -114.10130859 101.01453125 -114.32421875 101.9140625 C-116.45080234 110.36091198 -116.45080234 110.36091198 -117.9453125 113.03125 C-119.09205776 115.60187061 -119.04977938 117.4581001 -118.9453125 120.2578125 C-118.78559028 124.93836806 -118.78559028 124.93836806 -119.8828125 127.1328125 C-119.98056044 129.21426854 -120.01256991 131.29906797 -120.0078125 133.3828125 C-120.01039062 134.50171875 -120.01296875 135.620625 -120.015625 136.7734375 C-119.88888544 139.97920282 -119.41508417 142.97496547 -118.8828125 146.1328125 C-119.3203125 149.0078125 -119.3203125 149.0078125 -119.8828125 151.1328125 C-119.2228125 151.1328125 -118.5628125 151.1328125 -117.8828125 151.1328125 C-116.23203952 154.8929065 -115.8308026 156.84439397 -116.5703125 160.9453125 C-117.0034375 161.9971875 -117.4365625 163.0490625 -117.8828125 164.1328125 C-118.8728125 164.4628125 -119.8628125 164.7928125 -120.8828125 165.1328125 C-121.61605046 167.14789608 -121.61605046 167.14789608 -121.8828125 169.1328125 C-122.5428125 169.1328125 -123.2028125 169.1328125 -123.8828125 169.1328125 C-123.9859375 169.7309375 -124.0890625 170.3290625 -124.1953125 170.9453125 C-124.98409218 173.45506604 -126.05298336 174.30298336 -127.8828125 176.1328125 C-128.59728893 178.23614141 -128.59728893 178.23614141 -128.8828125 180.1328125 C-129.5428125 180.1328125 -130.2028125 180.1328125 -130.8828125 180.1328125 C-130.8828125 181.4528125 -130.8828125 182.7728125 -130.8828125 184.1328125 C-131.5428125 184.1328125 -132.2028125 184.1328125 -132.8828125 184.1328125 C-132.9859375 185.1021875 -133.0890625 186.0715625 -133.1953125 187.0703125 C-133.6026092 190.01583503 -134.35355635 192.59628974 -135.3828125 195.3828125 C-136.96792834 199.85345476 -137.39320219 204.13012362 -137.671875 208.84765625 C-137.8828125 211.1328125 -137.8828125 211.1328125 -138.8828125 213.1328125 C-138.97853802 214.71517337 -139.01355297 216.3014664 -139.015625 217.88671875 C-139.01691406 218.82322266 -139.01820313 219.75972656 -139.01953125 220.72460938 C-139.01566406 221.70494141 -139.01179688 222.68527344 -139.0078125 223.6953125 C-139.01167969 224.67951172 -139.01554687 225.66371094 -139.01953125 226.67773438 C-139.01824219 227.61294922 -139.01695312 228.54816406 -139.015625 229.51171875 C-139.01393311 230.80444702 -139.01393311 230.80444702 -139.01220703 232.12329102 C-139.10498165 234.13071282 -139.10498165 234.13071282 -137.8828125 235.1328125 C-137.810676 237.39609506 -137.88633161 239.64285843 -137.9453125 241.90625 C-137.98542041 244.30746215 -137.98542041 244.30746215 -136.8828125 247.1328125 C-136.9034375 248.0609375 -136.9240625 248.9890625 -136.9453125 249.9453125 C-136.87730942 253.41346982 -136.05688507 255.88684716 -134.8828125 259.1328125 C-134.50971351 260.79103023 -134.17580273 262.45858264 -133.8828125 264.1328125 C-133.6971875 265.1846875 -133.5115625 266.2365625 -133.3203125 267.3203125 C-132.8828125 270.1328125 -132.8828125 270.1328125 -132.8828125 272.1328125 C-132.2228125 272.4628125 -131.5628125 272.7928125 -130.8828125 273.1328125 C-129.81463968 275.45492732 -128.834847 277.76445082 -127.8828125 280.1328125 C-127.34321547 281.36288913 -126.8016244 282.59209343 -126.2578125 283.8203125 C-124.8828125 287.1328125 -124.8828125 287.1328125 -124.3203125 289.5078125 C-124.10375 290.3121875 -124.10375 290.3121875 -123.8828125 291.1328125 C-123.2228125 291.4628125 -122.5628125 291.7928125 -121.8828125 292.1328125 C-121.8828125 293.1228125 -121.8828125 294.1128125 -121.8828125 295.1328125 C-120.8928125 295.4628125 -119.9028125 295.7928125 -118.8828125 296.1328125 C-118.8828125 296.7928125 -118.8828125 297.4528125 -118.8828125 298.1328125 C-118.0784375 298.7515625 -117.2740625 299.3703125 -116.4453125 300.0078125 C-113.71012549 302.27601637 -113.55813498 302.86875382 -112.8828125 306.1328125 C-111.8928125 306.4628125 -110.9028125 306.7928125 -109.8828125 307.1328125 C-109.8828125 307.7928125 -109.8828125 308.4528125 -109.8828125 309.1328125 C-109.2846875 309.2359375 -108.6865625 309.3390625 -108.0703125 309.4453125 C-105.50610489 310.25120632 -104.73257508 311.2119052 -102.8828125 313.1328125 C-100.90960197 314.5054807 -98.90738098 315.83708867 -96.8828125 317.1328125 C-95.67625 317.90625 -95.67625 317.90625 -94.4453125 318.6953125 C-91.33806181 320.43840435 -88.17686329 321.77643865 -84.8828125 323.1328125 C-84.8828125 323.7928125 -84.8828125 324.4528125 -84.8828125 325.1328125 C-83.8928125 324.8028125 -82.9028125 324.4728125 -81.8828125 324.1328125 C-81.8828125 324.7928125 -81.8828125 325.4528125 -81.8828125 326.1328125 C-78.9128125 326.7928125 -75.9428125 327.4528125 -72.8828125 328.1328125 C-72.8828125 328.7928125 -72.8828125 329.4528125 -72.8828125 330.1328125 C-72.2846875 329.9471875 -71.6865625 329.7615625 -71.0703125 329.5703125 C-68.8828125 329.1328125 -68.8828125 329.1328125 -65.8828125 330.1328125 C-65.8828125 330.7928125 -65.8828125 331.4528125 -65.8828125 332.1328125 C-65.2228125 331.9059375 -64.5628125 331.6790625 -63.8828125 331.4453125 C-60.77969106 331.12207068 -59.78865951 331.41252795 -57.0078125 332.5703125 C-53.16065326 334.17148424 -50.06999896 334.29081954 -45.8828125 334.1328125 C-44.20723871 334.41801655 -42.53464005 334.73236946 -40.8828125 335.1328125 C-40.8828125 335.7928125 -40.8828125 336.4528125 -40.8828125 337.1328125 C-39.2328125 337.4628125 -37.5828125 337.7928125 -35.8828125 338.1328125 C-36.90979548 341.12817952 -37.94439695 343.20932652 -39.9453125 345.6953125 C-41.77266811 347.99424375 -42.4607721 349.28403977 -42.8828125 352.1328125 C-43.5428125 352.1328125 -44.2028125 352.1328125 -44.8828125 352.1328125 C-45.0065625 353.3084375 -45.1303125 354.4840625 -45.2578125 355.6953125 C-46.05255752 361.8464212 -46.75041248 367.12312498 -51.8828125 371.1328125 C-52.5428125 371.1328125 -53.2028125 371.1328125 -53.8828125 371.1328125 C-54.2128125 371.7928125 -54.5428125 372.4528125 -54.8828125 373.1328125 C-65.61547339 376.4999218 -76.74993341 377.81410444 -87.8828125 376.1328125 C-87.8828125 375.4728125 -87.8828125 374.8128125 -87.8828125 374.1328125 C-88.4603125 374.3390625 -89.0378125 374.5453125 -89.6328125 374.7578125 C-92.43718105 375.22520726 -93.53668069 374.66993334 -95.8828125 373.1328125 C-96.2128125 372.4728125 -96.5428125 371.8128125 -96.8828125 371.1328125 C-97.6665625 370.9884375 -98.4503125 370.8440625 -99.2578125 370.6953125 C-102.22023559 370.06050755 -102.96941914 369.39409556 -104.8828125 367.1328125 C-105.4396875 366.6171875 -105.9965625 366.1015625 -106.5703125 365.5703125 C-107.8828125 364.1328125 -107.8828125 364.1328125 -107.8828125 362.1328125 C-108.5428125 362.1328125 -109.2028125 362.1328125 -109.8828125 362.1328125 C-114.8828125 356.77566964 -114.8828125 356.77566964 -114.8828125 353.1328125 C-115.8728125 352.8028125 -116.8628125 352.4728125 -117.8828125 352.1328125 C-119.8828125 349.1328125 -119.8828125 349.1328125 -119.8828125 346.1328125 C-120.8728125 345.8028125 -121.8628125 345.4728125 -122.8828125 345.1328125 C-124.24457831 343.15206223 -125.57874366 341.15201587 -126.8828125 339.1328125 C-127.5428125 338.8028125 -128.2028125 338.4728125 -128.8828125 338.1328125 C-128.8828125 337.4728125 -128.8828125 336.8128125 -128.8828125 336.1328125 C-129.5428125 336.1328125 -130.2028125 336.1328125 -130.8828125 336.1328125 C-130.8828125 335.4728125 -130.8828125 334.8128125 -130.8828125 334.1328125 C-131.8521875 334.0090625 -132.8215625 333.8853125 -133.8203125 333.7578125 C-135.33625 333.4484375 -135.33625 333.4484375 -136.8828125 333.1328125 C-137.2128125 332.4728125 -137.5428125 331.8128125 -137.8828125 331.1328125 C-140.19824293 330.40640295 -142.53551185 329.74849792 -144.8828125 329.1328125 C-145.8934375 328.7615625 -146.9040625 328.3903125 -147.9453125 328.0078125 C-151.07380952 327.07591977 -153.63886308 327.05908638 -156.8828125 327.1328125 C-157.5428125 326.8028125 -158.2028125 326.4728125 -158.8828125 326.1328125 C-158.8828125 326.7928125 -158.8828125 327.4528125 -158.8828125 328.1328125 C-159.5428125 328.4628125 -160.2028125 328.7928125 -160.8828125 329.1328125 C-160.8828125 330.1228125 -160.8828125 331.1128125 -160.8828125 332.1328125 C-158.90324308 333.82369472 -156.90336054 335.49111722 -154.8828125 337.1328125 C-154.8828125 337.7928125 -154.8828125 338.4528125 -154.8828125 339.1328125 C-153.8928125 339.1328125 -152.9028125 339.1328125 -151.8828125 339.1328125 C-150.17051002 340.75255809 -148.51117988 342.4287071 -146.8828125 344.1328125 C-145.85340366 345.02220099 -144.81163724 345.89749404 -143.7578125 346.7578125 C-138.63852346 350.9867904 -136.1999371 354.64630622 -133.8203125 360.9453125 C-133.09078633 363.29796819 -133.09078633 363.29796819 -130.8828125 364.1328125 C-128.84783152 369.0506832 -127.27291844 374.00011363 -125.8828125 379.1328125 C-125.2228125 379.1328125 -124.5628125 379.1328125 -123.8828125 379.1328125 C-123.8828125 380.4528125 -123.8828125 381.7728125 -123.8828125 383.1328125 C-123.2228125 383.1328125 -122.5628125 383.1328125 -121.8828125 383.1328125 C-121.8828125 384.1228125 -121.8828125 385.1128125 -121.8828125 386.1328125 C-120.8928125 386.4628125 -119.9028125 386.7928125 -118.8828125 387.1328125 C-116.6953125 388.5703125 -116.6953125 388.5703125 -114.8828125 390.1328125 C-114.8828125 390.7928125 -114.8828125 391.4528125 -114.8828125 392.1328125 C-113.8928125 392.1328125 -112.9028125 392.1328125 -111.8828125 392.1328125 C-111.2228125 392.7928125 -110.5628125 393.4528125 -109.8828125 394.1328125 C-107.56632451 395.17123815 -105.23378226 396.17501 -102.8828125 397.1328125 C-102.8828125 397.7928125 -102.8828125 398.4528125 -102.8828125 399.1328125 C-100.9296875 399.06770833 -98.9765625 399.00260417 -97.0234375 398.9375 C-94.8828125 399.1328125 -94.8828125 399.1328125 -92.89453125 400.13671875 C-90.5354562 401.30480445 -89.05567736 401.30841323 -86.4453125 401.1953125 C-83.06543326 401.06011733 -80.19260383 401.45650839 -76.8828125 402.1328125 C-69.36312767 402.65857908 -62.16421837 401.71447197 -54.75390625 400.47265625 C-51.8828125 400.1328125 -51.8828125 400.1328125 -49.8828125 401.1328125 C-49.50390625 403.34765625 -49.50390625 403.34765625 -49.3203125 406.0703125 C-49.11479927 409.73956371 -49.11479927 409.73956371 -47.8828125 413.1328125 C-47.75988909 415.52013422 -47.69447555 417.87714387 -47.6796875 420.265625 C-47.67398743 420.9762912 -47.66828735 421.6869574 -47.66241455 422.41915894 C-47.65295942 423.9272106 -47.64642853 425.43528298 -47.64257812 426.94335938 C-47.63293726 429.22824411 -47.60194793 431.51220396 -47.5703125 433.796875 C-47.46614478 447.82389583 -47.46614478 447.82389583 -50.8828125 454.1328125 C-55.27040387 458.05358015 -59.40158757 458.54261934 -65.16015625 458.2734375 C-65.72863281 458.22703125 -66.29710937 458.180625 -66.8828125 458.1328125 C-66.8828125 457.4728125 -66.8828125 456.8128125 -66.8828125 456.1328125 C-68.8628125 456.1328125 -70.8428125 456.1328125 -72.8828125 456.1328125 C-72.8828125 455.4728125 -72.8828125 454.8128125 -72.8828125 454.1328125 C-73.8728125 454.4628125 -74.8628125 454.7928125 -75.8828125 455.1328125 C-78.0703125 454.1953125 -78.0703125 454.1953125 -79.8828125 453.1328125 C-79.8828125 452.4728125 -79.8828125 451.8128125 -79.8828125 451.1328125 C-80.8728125 451.4628125 -81.8628125 451.7928125 -82.8828125 452.1328125 C-84.23617145 451.16008575 -85.56943854 450.1588859 -86.8828125 449.1328125 C-87.8728125 449.1328125 -88.8628125 449.1328125 -89.8828125 449.1328125 C-89.8828125 448.4728125 -89.8828125 447.8128125 -89.8828125 447.1328125 C-90.6253125 446.9884375 -91.3678125 446.8440625 -92.1328125 446.6953125 C-94.40308989 446.23093758 -96.64040729 445.71417681 -98.8828125 445.1328125 C-98.8828125 444.4728125 -98.8828125 443.8128125 -98.8828125 443.1328125 C-99.7284375 442.8853125 -100.5740625 442.6378125 -101.4453125 442.3828125 C-104.46723657 441.28393102 -107.06322619 439.9843607 -109.81640625 438.33984375 C-113.29056906 436.31051236 -116.87002017 434.47195036 -120.4296875 432.59765625 C-122.65420424 431.26932221 -124.11987145 429.99340917 -125.8828125 428.1328125 C-126.7696875 427.6171875 -127.6565625 427.1015625 -128.5703125 426.5703125 C-129.715 425.85875 -129.715 425.85875 -130.8828125 425.1328125 C-130.8828125 424.4728125 -130.8828125 423.8128125 -130.8828125 423.1328125 C-132.5328125 422.4728125 -134.1828125 421.8128125 -135.8828125 421.1328125 C-135.8828125 420.4728125 -135.8828125 419.8128125 -135.8828125 419.1328125 C-136.8728125 419.1328125 -137.8628125 419.1328125 -138.8828125 419.1328125 C-140.26130353 417.84622087 -141.58810275 416.50368165 -142.8828125 415.1328125 C-143.7903125 414.4315625 -144.6978125 413.7303125 -145.6328125 413.0078125 C-146.3753125 412.3890625 -147.1178125 411.7703125 -147.8828125 411.1328125 C-147.8828125 410.4728125 -147.8828125 409.8128125 -147.8828125 409.1328125 C-148.5428125 409.1328125 -149.2028125 409.1328125 -149.8828125 409.1328125 C-149.8828125 408.4728125 -149.8828125 407.8128125 -149.8828125 407.1328125 C-150.97142578 406.7925 -150.97142578 406.7925 -152.08203125 406.4453125 C-155.46880514 404.85820507 -157.23757904 402.93699264 -159.6953125 400.1328125 C-160.48550781 399.2459375 -161.27570313 398.3590625 -162.08984375 397.4453125 C-163.8828125 395.1328125 -163.8828125 395.1328125 -163.8828125 393.1328125 C-164.8728125 392.8028125 -165.8628125 392.4728125 -166.8828125 392.1328125 C-168.2755414 390.51544991 -169.60218765 388.8403123 -170.8828125 387.1328125 C-171.6253125 386.2459375 -172.3678125 385.3590625 -173.1328125 384.4453125 C-174.8828125 382.1328125 -174.8828125 382.1328125 -174.8828125 380.1328125 C-175.5428125 380.1328125 -176.2028125 380.1328125 -176.8828125 380.1328125 C-176.9653125 379.5140625 -177.0478125 378.8953125 -177.1328125 378.2578125 C-177.67091983 375.94934446 -177.67091983 375.94934446 -179.8828125 375.1328125 C-180.5428125 374.8028125 -181.2028125 374.4728125 -181.8828125 374.1328125 C-182.2549167 372.80977533 -182.58911423 371.47543315 -182.8828125 370.1328125 C-183.8728125 369.4728125 -184.8628125 368.8128125 -185.8828125 368.1328125 C-185.8828125 367.1428125 -185.8828125 366.1528125 -185.8828125 365.1328125 C-186.5428125 365.1328125 -187.2028125 365.1328125 -187.8828125 365.1328125 C-187.8828125 364.1428125 -187.8828125 363.1528125 -187.8828125 362.1328125 C-188.8728125 361.8028125 -189.8628125 361.4728125 -190.8828125 361.1328125 C-192.1328125 359.1953125 -192.1328125 359.1953125 -192.8828125 357.1328125 C-192.5528125 356.4728125 -192.2228125 355.8128125 -191.8828125 355.1328125 C-192.8728125 354.8028125 -193.8628125 354.4728125 -194.8828125 354.1328125 C-195.9453125 351.7578125 -195.9453125 351.7578125 -196.8828125 349.1328125 C-197.8728125 347.6478125 -197.8728125 347.6478125 -198.8828125 346.1328125 C-200.3995444 343.43640023 -200.8828125 342.30528185 -200.8828125 339.1328125 C-201.5428125 339.1328125 -202.2028125 339.1328125 -202.8828125 339.1328125 C-203.1509375 338.4315625 -203.4190625 337.7303125 -203.6953125 337.0078125 C-204.86040387 334.0567122 -204.86040387 334.0567122 -206.5078125 331.0703125 C-207.8828125 328.1328125 -207.8828125 328.1328125 -207.8828125 324.1328125 C-208.5428125 324.1328125 -209.2028125 324.1328125 -209.8828125 324.1328125 C-210.1921875 322.9984375 -210.5015625 321.8640625 -210.8203125 320.6953125 C-211.51205781 317.34506151 -211.51205781 317.34506151 -212.8828125 316.1328125 C-212.92345082 314.46664135 -212.9255335 312.79893155 -212.8828125 311.1328125 C-213.5428125 311.1328125 -214.2028125 311.1328125 -214.8828125 311.1328125 C-215.0684375 309.5240625 -215.0684375 309.5240625 -215.2578125 307.8828125 C-215.79611436 304.65300131 -216.39399294 302.92434917 -217.8828125 300.1328125 C-218.22435187 298.46780807 -218.55730748 296.80102573 -218.8828125 295.1328125 C-219.2128125 294.3078125 -219.5428125 293.4828125 -219.8828125 292.6328125 C-220.89014639 290.11447779 -221.41617796 287.7992956 -221.8828125 285.1328125 C-222.0890625 284.3284375 -222.2953125 283.5240625 -222.5078125 282.6953125 C-222.95538246 279.63691774 -222.51268494 277.14220307 -221.8828125 274.1328125 C-222.5428125 274.1328125 -223.2028125 274.1328125 -223.8828125 274.1328125 C-224.87829071 268.15994321 -225.2419819 262.18676959 -225.6015625 256.14453125 C-225.69200739 253.2126629 -225.69200739 253.2126629 -226.8828125 251.1328125 C-226.95280146 248.33762843 -226.87986411 245.55692248 -226.8203125 242.76171875 C-226.75674436 240.02169913 -226.75674436 240.02169913 -227.8828125 237.1328125 C-228.01985292 232.81603935 -227.95668497 229.29406834 -226.8828125 225.1328125 C-226.8828125 223.9778125 -226.8828125 222.8228125 -226.8828125 221.6328125 C-226.8828125 218.76502839 -226.71506779 216.81452398 -225.8828125 214.1328125 C-225.04554631 211.2630523 -224.82199485 208.8638827 -224.9453125 205.8828125 C-224.99517683 202.06195839 -224.43685513 198.91225015 -223.390625 195.2578125 C-222.59339723 191.9217209 -222.38431728 188.55088657 -222.12890625 185.13671875 C-221.8828125 183.1328125 -221.8828125 183.1328125 -220.8828125 182.1328125 C-220.7384375 181.0190625 -220.5940625 179.9053125 -220.4453125 178.7578125 C-219.8828125 175.1328125 -219.8828125 175.1328125 -217.8828125 172.1328125 C-217.84217418 170.46664135 -217.8400915 168.79893155 -217.8828125 167.1328125 C-217.3878125 166.1428125 -217.3878125 166.1428125 -216.8828125 165.1328125 C-216.2228125 165.1328125 -215.5628125 165.1328125 -214.8828125 165.1328125 C-215.0684375 164.3490625 -215.2540625 163.5653125 -215.4453125 162.7578125 C-215.8828125 160.1328125 -215.8828125 160.1328125 -214.8828125 158.1328125 C-214.2228125 158.1328125 -213.5628125 158.1328125 -212.8828125 158.1328125 C-212.9240625 157.2253125 -212.9653125 156.3178125 -213.0078125 155.3828125 C-212.87919513 152.03876089 -212.39395805 150.99576513 -210.8828125 148.1328125 C-209.59917472 145.06771588 -208.35012467 141.98968915 -207.1015625 138.91015625 C-205.8828125 136.1328125 -205.8828125 136.1328125 -203.8828125 133.1328125 C-203.5528125 132.2871875 -203.2228125 131.4415625 -202.8828125 130.5703125 C-201.8828125 128.1328125 -201.8828125 128.1328125 -199.8828125 126.1328125 C-199.5734375 125.1840625 -199.2640625 124.2353125 -198.9453125 123.2578125 C-197.93392669 120.28314836 -196.85075474 118.52856827 -194.8828125 116.1328125 C-194.5528125 115.4728125 -194.2228125 114.8128125 -193.8828125 114.1328125 C-193.2228125 114.1328125 -192.5628125 114.1328125 -191.8828125 114.1328125 C-191.8828125 112.8128125 -191.8828125 111.4928125 -191.8828125 110.1328125 C-191.2228125 109.8028125 -190.5628125 109.4728125 -189.8828125 109.1328125 C-189.16121826 107.48918116 -188.48929829 105.82230864 -187.8828125 104.1328125 C-187.2228125 104.1328125 -186.5628125 104.1328125 -185.8828125 104.1328125 C-185.7590625 103.5140625 -185.6353125 102.8953125 -185.5078125 102.2578125 C-184.8828125 100.1328125 -184.8828125 100.1328125 -182.8828125 98.1328125 C-182.3878125 97.2665625 -181.8928125 96.4003125 -181.3828125 95.5078125 C-180.8878125 94.7240625 -180.3928125 93.9403125 -179.8828125 93.1328125 C-179.2228125 93.1328125 -178.5628125 93.1328125 -177.8828125 93.1328125 C-177.8828125 92.1428125 -177.8828125 91.1528125 -177.8828125 90.1328125 C-175.8828125 88.1328125 -175.8828125 88.1328125 -173.8828125 87.1328125 C-173.8828125 86.4728125 -173.8828125 85.8128125 -173.8828125 85.1328125 C-172.23851421 83.44407371 -170.56897032 81.77975735 -168.8828125 80.1328125 C-168.3259375 79.3696875 -167.7690625 78.6065625 -167.1953125 77.8203125 C-166.7621875 77.2634375 -166.3290625 76.7065625 -165.8828125 76.1328125 C-165.2228125 76.1328125 -164.5628125 76.1328125 -163.8828125 76.1328125 C-163.8828125 75.4728125 -163.8828125 74.8128125 -163.8828125 74.1328125 C-163.2228125 74.1328125 -162.5628125 74.1328125 -161.8828125 74.1328125 C-161.3878125 72.6478125 -161.3878125 72.6478125 -160.8828125 71.1328125 C-158.42033651 67.56646796 -157.09710866 66.00473584 -152.8828125 65.1328125 C-152.3878125 63.6478125 -152.3878125 63.6478125 -151.8828125 62.1328125 C-151.2228125 62.1328125 -150.5628125 62.1328125 -149.8828125 62.1328125 C-149.8828125 61.4728125 -149.8828125 60.8128125 -149.8828125 60.1328125 C-148.2328125 59.4728125 -146.5828125 58.8128125 -144.8828125 58.1328125 C-144.8828125 57.4728125 -144.8828125 56.8128125 -144.8828125 56.1328125 C-141.34134621 52.46887475 -137.26589725 49.68961193 -132.8828125 47.1328125 C-132.3465625 46.5759375 -131.8103125 46.0190625 -131.2578125 45.4453125 C-129.8828125 44.1328125 -129.8828125 44.1328125 -126.8828125 44.1328125 C-126.5528125 43.1428125 -126.2228125 42.1528125 -125.8828125 41.1328125 C-125.2228125 41.1328125 -124.5628125 41.1328125 -123.8828125 41.1328125 C-123.2846875 40.4934375 -122.6865625 39.8540625 -122.0703125 39.1953125 C-119.5872951 36.85418181 -118.16731843 36.66543508 -114.8828125 36.1328125 C-114.3878125 35.1428125 -114.3878125 35.1428125 -113.8828125 34.1328125 C-112.8928125 33.8028125 -111.9028125 33.4728125 -110.8828125 33.1328125 C-110.3878125 32.1428125 -110.3878125 32.1428125 -109.8828125 31.1328125 C-105.54947917 29.1328125 -105.54947917 29.1328125 -102.8828125 29.1328125 C-102.5528125 28.4728125 -102.2228125 27.8128125 -101.8828125 27.1328125 C-96.95651022 23.89700974 -90.91974202 20.1328125 -84.8828125 20.1328125 C-84.8828125 19.4728125 -84.8828125 18.8128125 -84.8828125 18.1328125 C-83.8928125 17.8028125 -82.9028125 17.4728125 -81.8828125 17.1328125 C-81.2228125 17.4628125 -80.5628125 17.7928125 -79.8828125 18.1328125 C-79.8828125 17.4728125 -79.8828125 16.8128125 -79.8828125 16.1328125 C-79.0990625 15.8853125 -78.3153125 15.6378125 -77.5078125 15.3828125 C-73.69212476 14.06705811 -69.97974564 12.574693 -66.25 11.03515625 C-62.94871498 9.77674562 -59.95510098 9.14201285 -56.4453125 8.6953125 C-53.23233184 8.18799976 -50.86111044 7.35467832 -47.8828125 6.1328125 C-45.88729468 5.77361929 -43.88732371 5.43784681 -41.8828125 5.1328125 C-40.8928125 4.8028125 -39.9028125 4.4728125 -38.8828125 4.1328125 C-37.8928125 4.6278125 -37.8928125 4.6278125 -36.8828125 5.1328125 C-36.8828125 4.4728125 -36.8828125 3.8128125 -36.8828125 3.1328125 C-36.0165625 3.1740625 -35.1503125 3.2153125 -34.2578125 3.2578125 C-30.92188797 3.30672547 -30.92188797 3.30672547 -28.1171875 2.12890625 C-24.4774158 1.00796207 -21.55512116 0.96779337 -17.7578125 1.0703125 C-13.38762228 1.28951513 -13.38762228 1.28951513 -9.11035156 0.6394043 C-6.04889308 -0.05683928 -3.13816037 0.00289384 0 0 Z " fill="#FAFCF8" transform="translate(243.8828125,20.8671875)"/>
<path d="M0 0 C1.2065625 0.0309375 1.2065625 0.0309375 2.4375 0.0625 C2.4375 0.7225 2.4375 1.3825 2.4375 2.0625 C5.0775 2.0625 7.7175 2.0625 10.4375 2.0625 C6.01747626 4.8223197 1.76393884 4.12625415 -3.2734375 3.9375 C-6.7473116 4.06952372 -9.29892815 4.92466008 -12.5625 6.0625 C-15.1171875 6.2578125 -15.1171875 6.2578125 -17.4375 6.1875 C-18.21867188 6.16945312 -18.99984375 6.15140625 -19.8046875 6.1328125 C-20.38476562 6.10960937 -20.96484375 6.08640625 -21.5625 6.0625 C-21.5625 5.0725 -21.5625 4.0825 -21.5625 3.0625 C-19.63083984 2.86333984 -19.63083984 2.86333984 -17.66015625 2.66015625 C-15.98174638 2.48200101 -14.30336227 2.30360308 -12.625 2.125 C-11.34979492 1.99448242 -11.34979492 1.99448242 -10.04882812 1.86132812 C-9.23994141 1.77431641 -8.43105469 1.68730469 -7.59765625 1.59765625 C-6.8487915 1.519104 -6.09992676 1.44055176 -5.32836914 1.35961914 C-2.76125387 0.92768505 -2.88475295 0.07035983 0 0 Z " fill="#EBE5DC" transform="translate(229.5625,133.9375)"/>
<path d="M0 0 C0.66 0.66 1.32 1.32 2 2 C1.98251781 4.91952568 1.86055367 7.72297885 1.625 10.625 C1.56828125 11.42679688 1.5115625 12.22859375 1.453125 13.0546875 C1.31152018 15.03715498 1.15697741 17.01869051 1 19 C0.34 19.33 -0.32 19.66 -1 20 C-2.74709802 14.75870593 -2.32730644 9.30922574 -1 4 C-0.814375 3.236875 -0.62875 2.47375 -0.4375 1.6875 C-0.293125 1.130625 -0.14875 0.57375 0 0 Z " fill="#8D8885" transform="translate(18,241)"/>
<path d="M0 0 C5.61 0 11.22 0 17 0 C16.34 1.32 15.68 2.64 15 4 C9.72684667 3.5547115 4.98229776 2.91626837 0 1 C0 0.67 0 0.34 0 0 Z " fill="#EFE9D9" transform="translate(281,137)"/>
<path d="M0 0 C0.66 1.32 1.32 2.64 2 4 C1.34 4 0.68 4 0 4 C-0.103125 4.515625 -0.20625 5.03125 -0.3125 5.5625 C-1.24263866 8.86026435 -2.61395512 11.86633332 -4 15 C-4.66 15 -5.32 15 -6 15 C-6 15.66 -6 16.32 -6 17 C-6.66 16.67 -7.32 16.34 -8 16 C-7.54625 15.113125 -7.0925 14.22625 -6.625 13.3125 C-5.0216419 10.16126786 -5.0216419 10.16126786 -4 7.4375 C-2.90765425 4.77490722 -1.52957365 2.43341262 0 0 Z " fill="#DFDDDC" transform="translate(45,144)"/>
<path d="M0 0 C0 0.99 0 1.98 0 3 C-1.91503674 3.22281874 -3.83216506 3.42771076 -5.75 3.625 C-6.81734375 3.74101562 -7.8846875 3.85703125 -8.984375 3.9765625 C-12.03792399 4.00029475 -13.46162421 3.61420985 -16 2 C-10.54538831 0.61470179 -5.63281599 -0.2396943 0 0 Z " fill="#E3DFD3" transform="translate(280,134)"/>
<path d="M0 0 C0.66 0.66 1.32 1.32 2 2 C-1.40136562 7.98640348 -4.87193553 9.93596777 -11 13 C-11 12.01 -11 11.02 -11 10 C-10.34 10 -9.68 10 -9 10 C-9 9.34 -9 8.68 -9 8 C-7.35 7.34 -5.7 6.68 -4 6 C-4 5.34 -4 4.68 -4 4 C-2.70766393 2.62689293 -1.37562854 1.28965176 0 0 Z " fill="#E6EEEE" transform="translate(103,73)"/>
<path d="M0 0 C1.65 0.33 3.3 0.66 5 1 C-0.57011122 5.79648466 -3.71472527 6.14010144 -11 6 C-11 5.34 -11 4.68 -11 4 C-7.7 3.67 -4.4 3.34 -1 3 C-0.67 2.01 -0.34 1.02 0 0 Z " fill="#C2C4C4" transform="translate(188,473)"/>
<path d="M0 0 C0.33 0.66 0.66 1.32 1 2 C-0.09655288 3.31886772 -1.20253423 4.62990057 -2.3125 5.9375 C-2.92738281 6.66839844 -3.54226562 7.39929688 -4.17578125 8.15234375 C-6 10 -6 10 -9 11 C-9 10.34 -9 9.68 -9 9 C-8.34 9 -7.68 9 -7 9 C-6.67 8.01 -6.34 7.02 -6 6 C-2.49056604 1.24528302 -2.49056604 1.24528302 0 0 Z " fill="#CACECE" transform="translate(89,86)"/>
<path d="M0 0 C1.2065625 0.0309375 1.2065625 0.0309375 2.4375 0.0625 C2.7675 1.7125 3.0975 3.3625 3.4375 5.0625 C1.4575 5.0625 -0.5225 5.0625 -2.5625 5.0625 C-3.125 3.125 -3.125 3.125 -3.5625 1.0625 C-2.5625 0.0625 -2.5625 0.0625 0 0 Z " fill="#FEFBE2" transform="translate(427.5625,396.9375)"/>
<path d="M0 0 C0.66 0.33 1.32 0.66 2 1 C2 1.66 2 2.32 2 3 C1.01 3 0.02 3 -1 3 C-1 3.99 -1 4.98 -1 6 C-3.64 6 -6.28 6 -9 6 C-8.34 5.67 -7.68 5.34 -7 5 C-7 4.34 -7 3.68 -7 3 C-6.01 2.67 -5.02 2.34 -4 2 C-3.34 2.33 -2.68 2.66 -2 3 C-2 2.34 -2 1.68 -2 1 C-1.34 0.67 -0.68 0.34 0 0 Z " fill="#EAF2F2" transform="translate(166,36)"/>
<path d="M0 0 C-0.33 0.66 -0.66 1.32 -1 2 C-2.65 2 -4.3 2 -6 2 C-6 2.99 -6 3.98 -6 5 C-9.3 5.33 -12.6 5.66 -16 6 C-11.44590972 1.44590972 -6.40162361 -0.17301685 0 0 Z " fill="#DFE6E6" transform="translate(185,31)"/>
<path d="M0 0 C3.28220895 1.64110448 3.74570789 4.69322988 5 8 C5 8.99 5 9.98 5 11 C3.68 11 2.36 11 1 11 C1.020625 10.113125 1.04125 9.22625 1.0625 8.3125 C1.00713781 5.37830369 0.6694266 2.84506304 0 0 Z " fill="#D0D7D6" transform="translate(111,293)"/>
<path d="M0 0 C2.13586678 3.20380017 2.23132175 4.01939967 2.125 7.6875 C2.10695313 8.49574219 2.08890625 9.30398438 2.0703125 10.13671875 C2.04710938 10.75160156 2.02390625 11.36648438 2 12 C1.01 11.67 0.02 11.34 -1 11 C-1.0270043 9.54176788 -1.04639787 8.08339325 -1.0625 6.625 C-1.07410156 5.81289063 -1.08570312 5.00078125 -1.09765625 4.1640625 C-1 2 -1 2 0 0 Z " fill="#E1E4E4" transform="translate(105,265)"/>
<path d="M0 0 C-0.33 0.99 -0.66 1.98 -1 3 C-1.66 3 -2.32 3 -3 3 C-3.2165625 3.928125 -3.2165625 3.928125 -3.4375 4.875 C-4 7 -4 7 -5 9 C-5.99 9 -6.98 9 -8 9 C-8 8.01 -8 7.02 -8 6 C-7.01 6 -6.02 6 -5 6 C-4.87625 5.195625 -4.7525 4.39125 -4.625 3.5625 C-4.41875 2.716875 -4.2125 1.87125 -4 1 C-2 0 -2 0 0 0 Z " fill="#ECE8E8" transform="translate(123,187)"/>
<path d="M0 0 C1.65 0.33 3.3 0.66 5 1 C3.9375 2.5 3.9375 2.5 2 4 C-1.6875 4.1875 -1.6875 4.1875 -5 4 C-4.67 3.01 -4.34 2.02 -4 1 C-2.02 1.495 -2.02 1.495 0 2 C0 1.34 0 0.68 0 0 Z " fill="#EAECEA" transform="translate(207,24)"/>
<path d="M0 0 C0.33 0.66 0.66 1.32 1 2 C-2.3146667 4.02907167 -4.4315979 4.12742133 -8.25 3.625 C-9.14203125 3.51414062 -10.0340625 3.40328125 -10.953125 3.2890625 C-11.62859375 3.19367188 -12.3040625 3.09828125 -13 3 C-10.03821227 1.32889958 -7.62928808 0.67317248 -4.25 0.375 C-3.05117187 0.26285156 -3.05117187 0.26285156 -1.828125 0.1484375 C-1.22484375 0.09945313 -0.6215625 0.05046875 0 0 Z " fill="#C4C4C5" transform="translate(191,421)"/>
<path d="M0 0 C3 0 6 0 9 0 C8.67 1.32 8.34 2.64 8 4 C5.23723823 3.47731534 2.6739124 2.89130413 0 2 C0 1.34 0 0.68 0 0 Z " fill="#F8F1EA" transform="translate(303,140)"/>
<path d="M0 0 C0 0.99 0 1.98 0 3 C-2.31 3 -4.62 3 -7 3 C-7 2.01 -7 1.02 -7 0 C-4.3333581 -1.33332095 -2.83319697 -0.67102033 0 0 Z " fill="#EAEEEB" transform="translate(199,28)"/>
<path d="M0 0 C0.99 0.33 1.98 0.66 3 1 C2.67 2.32 2.34 3.64 2 5 C1.34 5 0.68 5 0 5 C0 5.99 0 6.98 0 8 C-0.66 8 -1.32 8 -2 8 C-1.125 1.125 -1.125 1.125 0 0 Z " fill="#F3F4F4" transform="translate(113,196)"/>
<path d="M0 0 C1.89213369 2.38573379 3.02391783 4.07175348 4 7 C3.67 7.66 3.34 8.32 3 9 C2.01 9 1.02 9 0 9 C0 6.03 0 3.06 0 0 Z " fill="#E2E1DE" transform="translate(470,170)"/>
<path d="M0 0 C1.32 0.33 2.64 0.66 4 1 C3.67 1.99 3.34 2.98 3 4 C-0.0625 5.1875 -0.0625 5.1875 -3 6 C-3 5.01 -3 4.02 -3 3 C-2.01 3 -1.02 3 0 3 C0 2.01 0 1.02 0 0 Z " fill="#ECE8DB" transform="translate(319,134)"/>
<path d="M0 0 C1.32 0.33 2.64 0.66 4 1 C4 1.66 4 2.32 4 3 C4.66 3 5.32 3 6 3 C6.33 4.65 6.66 6.3 7 8 C3.28631113 6.76210371 2.22645819 5.14775123 0 2 C0 1.34 0 0.68 0 0 Z " fill="#B9B6B1" transform="translate(80,414)"/>
<path d="M0 0 C2.475 0.495 2.475 0.495 5 1 C5 1.66 5 2.32 5 3 C5.66 3.33 6.32 3.66 7 4 C6.34 4.66 5.68 5.32 5 6 C4.01 5.34 3.02 4.68 2 4 C2 3.34 2 2.68 2 2 C1.34 2 0.68 2 0 2 C0 1.34 0 0.68 0 0 Z " fill="#ECEFF1" transform="translate(113,355)"/>
<path d="M0 0 C0.66 0 1.32 0 2 0 C2 0.66 2 1.32 2 2 C2.99 2.33 3.98 2.66 5 3 C5 3.66 5 4.32 5 5 C5.66 5 6.32 5 7 5 C7 5.66 7 6.32 7 7 C6.01 7 5.02 7 4 7 C4 6.01 4 5.02 4 4 C2.68 4 1.36 4 0 4 C0 2.68 0 1.36 0 0 Z " fill="#CECFCE" transform="translate(415,88)"/>
<path d="M0 0 C2.66666667 0.66666667 5.33333333 1.33333333 8 2 C8 2.66 8 3.32 8 4 C6.02 4 4.04 4 2 4 C2 3.34 2 2.68 2 2 C1.34 2 0.68 2 0 2 C0 1.34 0 0.68 0 0 Z " fill="#E2E3DC" transform="translate(149,421)"/>
<path d="M0 0 C3.82946843 1.45255699 5.12050295 3.42895561 7 7 C6.34 7 5.68 7 5 7 C4 6 3 5 2 4 C1.01 3.67 0.02 3.34 -1 3 C-0.67 2.01 -0.34 1.02 0 0 Z " fill="#DEE1DC" transform="translate(97,366)"/>
<path d="M0 0 C1.32 0.33 2.64 0.66 4 1 C4.33 3.64 4.66 6.28 5 9 C4.34 9 3.68 9 3 9 C1.76078698 6.02588876 0.69941596 3.14737182 0 0 Z " fill="#E8EAE3" transform="translate(38,351)"/>
<path d="M0 0 C2.31 0 4.62 0 7 0 C7.33 1.32 7.66 2.64 8 4 C5.69 3.67 3.38 3.34 1 3 C0.67 2.01 0.34 1.02 0 0 Z " fill="#E7EBE8" transform="translate(97,347)"/>
<path d="M0 0 C0 3.99904969 -1.72586967 5.80200422 -4 9 C-4.66 8.67 -5.32 8.34 -6 8 C-2.25 1.125 -2.25 1.125 0 0 Z " fill="#D3CFCE" transform="translate(391,300)"/>
<path d="M0 0 C0.99 0.33 1.98 0.66 3 1 C1.02 1.99 1.02 1.99 -1 3 C-1 3.99 -1 4.98 -1 6 C-2.32 5.67 -3.64 5.34 -5 5 C-3.35 3.35 -1.7 1.7 0 0 Z " fill="#F1F5F7" transform="translate(124,58)"/>
<path d="M0 0 C0.66 0.66 1.32 1.32 2 2 C1.67 2.66 1.34 3.32 1 4 C0.34 4 -0.32 4 -1 4 C-1 4.66 -1 5.32 -1 6 C-1.99 6.33 -2.98 6.66 -4 7 C-3.43628586 3.73045798 -2.50037734 2.17424117 0 0 Z " fill="#EAECEA" transform="translate(414,421)"/>
<path d="M0 0 C1.32 0 2.64 0 4 0 C3.67 1.65 3.34 3.3 3 5 C2.01 5 1.02 5 0 5 C0 3.35 0 1.7 0 0 Z " fill="#D9D7D5" transform="translate(79,347)"/>
<path d="M0 0 C-5.75 4 -5.75 4 -8 4 C-8 3.01 -8 2.02 -8 1 C-3.375 -1.125 -3.375 -1.125 0 0 Z " fill="#F1F2F2" transform="translate(352,343)"/>
<path d="M0 0 C0.66 0 1.32 0 2 0 C2 2.97 2 5.94 2 9 C1.01 8.67 0.02 8.34 -1 8 C-0.67 5.36 -0.34 2.72 0 0 Z " fill="#AD9E95" transform="translate(380,153)"/>
<path d="M0 0 C0.66 0 1.32 0 2 0 C2.33 0.66 2.66 1.32 3 2 C5.01669827 3.13350534 5.01669827 3.13350534 7 4 C6.67 4.66 6.34 5.32 6 6 C4.125 5.8125 4.125 5.8125 2 5 C0.75 2.4375 0.75 2.4375 0 0 Z " fill="#E7E5DE" transform="translate(72,405)"/>
<path d="M0 0 C0.99 0 1.98 0 3 0 C3.66 2.31 4.32 4.62 5 7 C4.01 6.67 3.02 6.34 2 6 C2 5.01 2 4.02 2 3 C1.34 3 0.68 3 0 3 C0 2.01 0 1.02 0 0 Z " fill="#D6D9D7" transform="translate(56,383)"/>
<path d="M0 0 C1.32 0 2.64 0 4 0 C4.33 1.98 4.66 3.96 5 6 C4.01 5.67 3.02 5.34 2 5 C0.8125 2.4375 0.8125 2.4375 0 0 Z " fill="#C5CECE" transform="translate(119,361)"/>
<path d="M0 0 C0.98120464 3.05263664 0.98120464 4.94736336 0 8 C-0.66 8 -1.32 8 -2 8 C-2.33 7.01 -2.66 6.02 -3 5 C-1.5625 2.3125 -1.5625 2.3125 0 0 Z " fill="#DFDEDA" transform="translate(36,163)"/>
<path d="M0 0 C0 1.98 0 3.96 0 6 C-1.32 6.33 -2.64 6.66 -4 7 C-4 3 -4 3 -2.5625 1.25 C-1 0 -1 0 0 0 Z " fill="#EEEDEC" transform="translate(56,128)"/>
<path d="M0 0 C0.99 0.33 1.98 0.66 3 1 C2.6875 2.9375 2.6875 2.9375 2 5 C1.01 5.33 0.02 5.66 -1 6 C-0.67 4.02 -0.34 2.04 0 0 Z " fill="#DDDDDC" transform="translate(127,120)"/>
<path d="M0 0 C0.66 0 1.32 0 2 0 C1.67 1.98 1.34 3.96 1 6 C-0.32 5.67 -1.64 5.34 -3 5 C-1.625 2.5 -1.625 2.5 0 0 Z " fill="#E3E3E0" transform="translate(64,114)"/>
<path d="M0 0 C2 1 2 1 2 1 Z " fill="#FFFFFF" transform="translate(143,419)"/>
<path d="" fill="#FFFFFF" transform="translate(0,0)"/>
<path d="" fill="#FFFFFF" transform="translate(0,0)"/>
<path d="" fill="#FFFFFF" transform="translate(0,0)"/>
<path d="" fill="#FFFFFF" transform="translate(0,0)"/>
<path d="" fill="#FFFFFF" transform="translate(0,0)"/>
<path d="" fill="#FFFFFF" transform="translate(0,0)"/>
<path d="" fill="#FFFFFF" transform="translate(0,0)"/>
<path d="" fill="#FFFFFF" transform="translate(0,0)"/>
<path d="" fill="#FFFFFF" transform="translate(0,0)"/>
<path d="" fill="#FFFFFF" transform="translate(0,0)"/>
<path d="" fill="#FFFFFF" transform="translate(0,0)"/>
<path d="" fill="#FFFFFF" transform="translate(0,0)"/>
<path d="" fill="#FFFFFF" transform="translate(0,0)"/>
<path d="" fill="#FFFFFF" transform="translate(0,0)"/>
<path d="" fill="#FFFFFF" transform="translate(0,0)"/>
<path d="" fill="#FFFFFF" transform="translate(0,0)"/>
<path d="" fill="#FFFFFF" transform="translate(0,0)"/>
<path d="" fill="#FFFFFF" transform="translate(0,0)"/>
<path d="" fill="#FFFFFF" transform="translate(0,0)"/>
<path d="" fill="#FFFFFF" transform="translate(0,0)"/>
<path d="" fill="#FFFFFF" transform="translate(0,0)"/>
</svg>
