<?xml version="1.0" encoding="UTF-8"?>
<svg version="1.1" xmlns="http://www.w3.org/2000/svg" width="500" height="500">
<path d="M0 0 C1.64582629 1.39241706 3.27018942 2.81050271 4.875 4.25 C5.78121094 5.06210938 6.68742188 5.87421875 7.62109375 6.7109375 C14.80764592 13.508758 19.95071764 20.7242327 24.875 29.25 C25.42929687 30.19230469 25.98359375 31.13460937 26.5546875 32.10546875 C33.16684239 44.25059263 36.70204067 57.97972748 38.52949524 71.61624146 C38.72045854 73.04114857 38.72045854 73.04114857 38.91527969 74.49484169 C40.1444327 84.34823031 40.27713316 94.09930137 40.21557617 104.01513672 C40.21472674 105.97894782 40.21521118 107.94275988 40.21690369 109.90657043 C40.21775275 115.15931918 40.20030683 120.41185589 40.17918181 125.66455603 C40.16023009 131.18310775 40.15865018 136.70166611 40.15510559 142.22024536 C40.14583881 152.63539478 40.12129891 163.05044797 40.09105712 173.46555531 C40.05102166 187.56425835 40.0350148 201.66298833 40.01755047 215.76173401 C39.98947298 237.92456119 39.92966801 260.08718548 39.875 282.25 C10.505 282.25 -18.865 282.25 -49.125 282.25 C-49.16238281 270.29652344 -49.19976562 258.34304688 -49.23828125 246.02734375 C-49.26856908 238.43944168 -49.29960181 230.85155467 -49.33398438 223.26367188 C-49.38837965 211.22877391 -49.43979653 199.19391773 -49.47143555 187.15893555 C-49.49449668 178.39217887 -49.52798451 169.62553274 -49.57370156 160.85886389 C-49.59752487 156.22218154 -49.61632469 151.58560793 -49.62261391 146.94886589 C-49.62871446 142.57313608 -49.6488908 138.19768413 -49.67927551 133.82205772 C-49.68797688 132.22710865 -49.69179499 130.63212314 -49.69000816 129.03715134 C-49.67552515 110.12220785 -52.60225799 90.81334206 -65.8984375 76.31640625 C-75.91610276 66.80984637 -88.47994547 63.860714 -101.90234375 63.95166016 C-116.59667927 64.34501411 -129.43689696 68.71138061 -140.4375 78.6875 C-144.26782458 82.79231038 -147.01042123 87.10279975 -149.5625 92.0625 C-149.88065674 92.67730225 -150.19881348 93.29210449 -150.52661133 93.92553711 C-156.03502761 105.50433193 -156.57129961 117.67116168 -156.55737305 130.23950195 C-156.56641009 131.90643023 -156.576742 133.5733519 -156.58825684 135.24026489 C-156.61562518 139.72490725 -156.62508366 144.20942283 -156.63111091 148.69413781 C-156.64054756 153.39601087 -156.66675488 158.09779118 -156.69111633 162.79960632 C-156.73464032 171.68502101 -156.76327363 180.57041755 -156.78643972 189.45590609 C-156.81864872 201.47567843 -156.87409841 213.4953427 -156.92818546 225.51503277 C-157.01267776 244.4266562 -157.06632437 263.33823802 -157.125 282.25 C-186.495 282.25 -215.865 282.25 -246.125 282.25 C-246.125 187.87 -246.125 93.49 -246.125 -3.75 C-216.755 -3.75 -187.385 -3.75 -157.125 -3.75 C-156.795 5.16 -156.465 14.07 -156.125 23.25 C-154.35125 21.290625 -152.5775 19.33125 -150.75 17.3125 C-113.23402998 -23.42972151 -45.95341334 -35.34877949 0 0 Z " fill="#FFFFFF" transform="translate(430.125,187.75)"/>
<path d="M0 0 C36.63 0 73.26 0 111 0 C111 94.38 111 188.76 111 286 C74.37 286 37.74 286 0 286 C0 191.62 0 97.24 0 0 Z " fill="#FFFFFF" transform="translate(30,184)"/>
<path d="M0 0 C11.64704607 8.67928914 19.59265317 21.27259814 21.75 35.75 C23.13291728 51.29563921 20.64089305 65.8334754 10.7109375 78.3125 C1.21103307 89.28146182 -10.54505635 97.42528615 -25.36669922 98.97070312 C-42.23023791 99.87664329 -55.78975428 95.90440161 -68.9375 85.0625 C-78.36289058 76.28541671 -85.52892196 62.7294048 -86.25 49.75 C-86.3428125 48.61111328 -86.3428125 48.61111328 -86.4375 47.44921875 C-87.12726831 32.89941854 -82.24410892 19.17444662 -72.99609375 8.03515625 C-53.30589147 -12.9824754 -23.86336779 -15.77471091 0 0 Z " fill="#FFFFFF" transform="translate(116.25,40.25)"/>
</svg>
