<?xml version="1.0" encoding="UTF-8"?>
<svg version="1.1" xmlns="http://www.w3.org/2000/svg" width="500" height="500">
<path d="M0 0 C1.46330135 -0.00346782 2.92660008 -0.00823984 4.38989347 -0.01418173 C8.36101486 -0.02656709 12.33191664 -0.0205791 16.30303824 -0.01122308 C20.6050752 -0.00438117 24.90707674 -0.01493902 29.20910645 -0.02316284 C37.61680738 -0.03644764 46.02442761 -0.03364609 54.4321316 -0.02492492 C61.26944246 -0.01812844 68.10673083 -0.01724011 74.94404411 -0.02049637 C76.40801291 -0.02118592 76.40801291 -0.02118592 77.90155683 -0.0218894 C79.88470432 -0.02284864 81.86785181 -0.02382129 83.85099929 -0.02480717 C102.4122175 -0.03334555 120.97339114 -0.02355111 139.53460204 -0.00740607 C155.43637463 0.0059978 171.3380815 0.00366542 187.23985291 -0.01016235 C205.73970874 -0.026242 224.2395256 -0.03252394 242.73938745 -0.02332556 C244.71461927 -0.02236999 246.6898511 -0.02142687 248.66508293 -0.02049637 C250.12257976 -0.01980213 250.12257976 -0.01980213 251.60952096 -0.01909386 C258.43348765 -0.01651128 265.25742946 -0.02085909 272.08139229 -0.02793503 C280.40477708 -0.03637668 288.72807707 -0.03401402 297.05145223 -0.0180928 C301.29235215 -0.01024612 305.53311104 -0.00705647 309.7740097 -0.01704025 C313.66569368 -0.02606292 317.55710757 -0.0209316 321.44876748 -0.0051076 C322.8469291 -0.00179153 324.24511415 -0.00338107 325.64326037 -0.01073496 C348.10332408 -0.11968931 367.71411099 6.31822657 384.32359314 21.87313843 C403.85391773 42.16192222 406.89262802 65.26138005 406.88291931 92.14901733 C406.88591714 93.81761754 406.88932109 95.48621705 406.89309692 97.15481567 C406.90187889 101.65929805 406.90427261 106.1637614 406.90491271 110.66825151 C406.90562666 113.49148662 406.9077675 116.31471698 406.91040993 119.1379509 C406.91964505 129.01306207 406.92374723 138.8881598 406.92295837 148.76327515 C406.92235849 157.92619965 406.93289757 167.08906512 406.94870204 176.2519747 C406.96183781 184.15303655 406.96713973 192.05407925 406.96650296 199.95515192 C406.96624969 204.65880882 406.96900534 209.36241322 406.97968102 214.06605911 C406.98946394 218.4968384 406.98937246 222.92751608 406.98216438 227.35829926 C406.98113098 228.97017696 406.98340582 230.58206134 406.98952484 232.19392776 C407.01856312 240.3838053 406.77123547 248.44105372 405.83184814 256.58294678 C405.75222216 257.27337842 405.67259617 257.96381006 405.59055728 258.67516387 C403.67447189 273.72391664 396.7141165 287.12545662 386.73765564 298.38095093 C386.21816345 298.99454468 385.69867126 299.60813843 385.16343689 300.24032593 C372.96949262 313.63216396 353.86592788 321.29748053 336.13003278 322.65761268 C332.2878 322.76685386 328.45179321 322.78666689 324.60865784 322.76863098 C323.13542031 322.77281468 321.66218602 322.77829782 320.18895757 322.78495079 C316.18105088 322.79928841 312.17335186 322.79519769 308.16543436 322.78778398 C303.82720974 322.78302539 299.48902833 322.79558578 295.15081787 322.80580139 C286.66764851 322.82294219 278.18455338 322.82383925 269.70137121 322.81858849 C262.80204457 322.8145368 255.90273976 322.81600217 249.00341415 322.82133675 C247.52698285 322.82245938 247.52698285 322.82245938 246.02072465 322.82360469 C244.02074882 322.82513627 242.020773 322.82667461 240.02079718 322.82821966 C221.29217108 322.84192758 202.56358683 322.83651899 183.8349617 322.82503445 C166.72649038 322.81510345 149.61812723 322.82804349 132.5096726 322.85196864 C114.91258778 322.87639038 97.31555328 322.88595998 79.71845186 322.87931591 C69.85105834 322.87583058 59.98374798 322.87801038 50.11636734 322.89556694 C41.71682258 322.9103274 33.31741955 322.91087427 24.91787745 322.89349603 C20.63834613 322.8850153 16.35906757 322.88276428 12.07954979 322.89814758 C8.15127565 322.91209269 4.22346846 322.90710729 0.29522066 322.88790835 C-1.11513289 322.88417786 -2.52552475 322.88698366 -3.93584387 322.89752 C-17.00201861 322.98808554 -30.08090244 320.85173001 -41.69984436 314.56845093 C-42.6938324 314.04916016 -42.6938324 314.04916016 -43.707901 313.51937866 C-49.02654175 310.66742949 -53.78712794 307.44695495 -58.26234436 303.38095093 C-59.00742249 302.72739624 -59.75250061 302.07384155 -60.52015686 301.40048218 C-74.51201677 288.38093796 -81.9302107 270.21560053 -83.26234436 251.38095093 C-83.41746901 245.55607723 -83.41990862 239.73273439 -83.42347717 233.90609741 C-83.42811216 232.1376485 -83.43313773 230.36920057 -83.43852234 228.60075378 C-83.45158381 223.81524144 -83.45807916 219.02974309 -83.462533 214.24421573 C-83.46547419 211.24712423 -83.46958095 208.25003646 -83.47403717 205.25294685 C-83.48769637 195.85460379 -83.49737042 186.45626936 -83.50123906 177.05791706 C-83.50571439 166.24834537 -83.5232446 155.43890046 -83.55223966 144.62936729 C-83.57393354 136.24768618 -83.58394746 127.86604053 -83.58528018 119.48433167 C-83.58632281 114.49057217 -83.59211407 109.49693211 -83.61009979 104.50320244 C-83.6267141 99.79910419 -83.62867196 95.09521345 -83.61996078 90.39109612 C-83.61919747 88.67720479 -83.62343836 86.96330167 -83.63341904 85.24943924 C-83.76627931 60.98656048 -78.05925535 39.35130096 -60.88734436 21.44345093 C-55.76431566 16.59080429 -50.45337977 12.75096884 -44.26234436 9.38095093 C-43.26589905 8.83567749 -42.26945374 8.29040405 -41.24281311 7.72860718 C-28.13491863 1.11809073 -14.46436031 -0.07621248 0 0 Z M111.73765564 75.38095093 C111.73765564 132.14095093 111.73765564 188.90095093 111.73765564 247.38095093 C115.60114955 245.83555337 118.86186262 244.26888542 122.43687439 242.21298218 C123.55014099 241.57481567 124.66340759 240.93664917 125.81040955 240.27914429 C127.01537246 239.58399559 128.22028654 238.88876223 129.42515564 238.19345093 C130.68200363 237.47126475 131.93900476 236.74934503 133.19615173 236.02767944 C136.42402712 234.17352026 139.64954913 232.3153114 142.87419128 230.45553589 C145.73290768 228.80702909 148.59284018 227.16063405 151.45249939 225.51376343 C156.81043673 222.42615917 162.16558065 219.3337416 167.5198822 216.23983765 C172.92436213 213.11770485 178.33115671 209.99958567 183.73765564 206.88095093 C184.80886658 206.26284546 185.88007751 205.64473999 186.98374939 205.00790405 C192.42411639 201.86872719 197.86528519 198.73095464 203.30796814 195.59579468 C215.05519106 188.82708186 226.78464511 182.02952482 238.49009705 175.18881226 C245.87984055 170.87302714 253.29300114 166.60133605 260.73765564 162.38095093 C257.32266997 158.49068374 253.48732972 156.39875254 248.98765564 154.00595093 C241.66304342 150.02390774 234.42900096 145.91138356 227.23765564 141.69345093 C218.75550906 136.7244829 210.25698193 131.78592125 201.73765564 126.88095093 C193.38956652 122.07261528 185.05522259 117.24189339 176.73765564 112.38095093 C166.31530196 106.29109056 155.86617398 100.24868422 145.40562439 94.22470093 C141.33776414 91.88184625 137.27295927 89.53386706 133.21208191 87.17893982 C130.78539725 85.77175637 128.35782913 84.36610078 125.93022156 82.96051025 C124.20193666 81.95897051 122.4749127 80.95525587 120.74790955 79.95150757 C119.71198669 79.35201294 118.67606384 78.75251831 117.60874939 78.13485718 C116.69021179 77.6019104 115.77167419 77.06896362 114.82530212 76.51986694 C112.98769693 75.30113145 112.98769693 75.30113145 111.73765564 75.38095093 Z " fill="#FFFFFF" transform="translate(88.26234436035156,88.61904907226563)"/>
</svg>
